<svg width="51" height="50" viewBox="0 0 51 50" fill="none" xmlns="http://www.w3.org/2000/svg">
<path d="M23.7778 3.77626C23.3296 4.8273 22.9935 5.09006 22.0225 5.20268C20.9394 5.31529 20.79 5.46544 20.678 6.51648C20.566 7.60505 20.7154 7.79274 22.0598 8.50595C23.8151 9.3693 24.1512 10.7957 22.8441 11.5089C21.3502 12.2972 19.8564 14.8873 19.8564 16.6515C19.8564 18.153 19.4456 18.7161 18.9601 17.9278C18.3999 17.0644 15.2628 16.0134 13.1714 16.0134C8.61508 16.0134 5.44063 18.5284 4.76839 22.6199C4.32023 25.1349 4.84308 26.6739 7.53203 30.8406C10.1463 34.8946 10.6691 36.2834 11.2293 41.0131C11.4161 42.4771 11.7522 44.0161 11.9763 44.429C12.5365 45.5551 15.1507 46.6437 18.4372 47.1692C22.3586 47.8074 31.994 47.4695 34.7576 46.6062C37.8201 45.6677 38.7164 44.5416 39.0152 41.351C39.426 37.2594 40.2102 34.9321 42.227 31.8541C44.7292 27.9877 45.6255 25.9232 45.6255 23.8211C45.6255 21.5689 45.14 20.2551 43.6461 18.7161C40.7704 15.6755 36.6623 14.9999 32.9277 16.9893C31.8073 17.5899 30.7616 18.1155 30.6122 18.1905C30.4255 18.2656 30.3134 17.3647 30.3134 16.2011C30.3134 14.2116 30.2387 14.0239 28.6328 12.4849C26.5788 10.4579 26.5041 9.59452 28.2594 8.50595C29.3424 7.83028 29.5665 7.45491 29.5665 6.40386C29.5665 5.20268 29.4918 5.1276 28.2967 5.1276C27.1763 5.1276 26.9522 4.97745 26.5788 3.8138C26.2426 2.8003 25.9439 2.5 25.2343 2.5C24.5247 2.5 24.1512 2.8003 23.7778 3.77626ZM26.3547 13.7987C27.4377 14.2867 28.0726 15.8632 28.0726 17.9278C28.0726 19.3542 26.0186 23.8962 25.2716 24.1589C25.0476 24.234 24.338 23.2956 23.6657 22.0569C21.8358 18.6785 22.0225 14.587 24.0765 13.7611C25.1969 13.3107 25.2716 13.3107 26.3547 13.7987ZM16.2711 19.204C19.9684 20.9683 23.4417 25.8106 23.6657 29.5268L23.7778 31.2159L21.7237 31.6288C20.6033 31.8541 17.877 32.1544 15.6736 32.3045L11.6402 32.5673L9.92221 30.2024C7.00918 26.2235 6.48633 24.0463 7.9055 21.3061C8.54039 20.0299 9.32467 19.4293 11.6402 18.4908C12.5365 18.153 14.7773 18.4908 16.2711 19.204ZM39.8741 18.9788C41.7041 19.8046 42.8992 21.3812 43.2353 23.4082C43.5341 25.2475 42.8618 26.9367 40.5464 30.0898L38.7911 32.4922L36.5129 32.342C35.2432 32.2294 32.965 32.0793 31.3965 31.9667C29.8279 31.8916 28.0726 31.6288 27.5124 31.4036C26.5414 31.0282 26.5041 30.8781 26.6908 29.3015C26.9522 26.8616 28.9316 23.0328 30.7989 21.4187C32.7409 19.7296 35.7287 18.2656 37.2225 18.2656C37.8574 18.2656 39.0152 18.6034 39.8741 18.9788ZM31.7326 34.5943C34.683 34.857 37.1852 35.1949 37.2972 35.2699C37.4839 35.4576 36.8117 40.375 36.5876 40.6002C36.5129 40.6753 35.3178 40.4501 33.8613 40.1122C29.2677 39.0612 18.8107 39.324 14.4411 40.6002C13.7689 40.8254 13.6569 40.5627 13.2461 38.0852C13.022 36.5837 12.8726 35.3075 12.9099 35.2324C12.9846 35.1949 15.0387 34.9696 17.4662 34.7444C19.8937 34.5192 22.5827 34.1814 23.4043 34.0312C24.2259 33.8435 25.2343 33.806 25.6451 33.8811C26.0559 33.9937 28.8196 34.294 31.7326 34.5943ZM33.0397 42.7023C34.3842 43.0401 34.8697 43.866 34.0481 44.3539C33.1891 44.8795 24.1512 45.2548 20.6407 44.917C15.6736 44.429 14.7399 43.9786 16.5699 43.0026C18.2878 42.0642 29.6785 41.8765 33.0397 42.7023Z" fill="black"/>
</svg>
