<svg width="50" height="50" viewBox="0 0 50 50" fill="none" xmlns="http://www.w3.org/2000/svg">
<path d="M22.7318 4.31075C19.5849 5.21533 17.9911 8.36169 19.0128 11.626C19.5441 13.3172 19.5441 13.5532 18.9719 13.8678C17.378 14.7331 15.539 16.6602 15.0894 17.9581C14.1086 20.7898 15.3755 24.8407 17.6641 26.0993L18.931 26.8465L17.5415 27.5151C15.4572 28.577 12.3921 31.3301 11.2478 33.1786C9.89911 35.381 9 39.2747 9 42.9323V46H24.9796H41L40.7548 41.9491C40.6322 39.7466 40.2235 37.0329 39.8557 35.9317C38.8748 33.1393 36.6271 30.4255 33.7254 28.5377L31.2324 26.9252L32.9489 25.352C34.8697 23.5822 35.401 21.9304 34.9515 19.0593C34.7063 17.2895 32.8672 14.969 30.9464 13.9465C30.2516 13.5925 30.2516 13.4352 30.8646 11.7047C32.5811 6.94583 28.0447 2.81623 22.7318 4.31075ZM26.2056 6.67052C26.9413 6.67052 28.2082 8.2437 28.2082 9.18761C28.2082 9.69889 27.8404 10.8788 27.4317 11.7834C26.9821 12.7273 26.7369 13.7105 26.8595 13.9858C26.9413 14.2611 27.7586 14.9297 28.6577 15.5197C30.7829 16.8569 31.8863 18.6267 31.8863 20.7505C31.8863 22.5203 31.1916 23.4249 28.2899 25.6667C27.1047 26.5712 27.5951 27.5151 30.1699 29.2063C35.4419 32.7066 37.567 35.8137 37.9349 40.4939L38.1392 43.2469H24.9387H11.7382L11.9425 40.4939C12.3103 35.735 14.1494 33.1393 20.0345 28.9703C22.4049 27.2792 22.5683 26.3353 20.6475 24.8801C16.8876 22.0877 17.1328 18.2727 21.2197 15.4803C23.0179 14.2218 23.304 13.1599 22.2822 11.3901C20.7701 8.83364 22.6092 5.8446 25.2656 6.5132C25.5926 6.59186 26.0013 6.67052 26.2056 6.67052Z" fill="black"/>
</svg>
