<svg width="51" height="50" viewBox="0 0 51 50" fill="none" xmlns="http://www.w3.org/2000/svg">
<path fill-rule="evenodd" clip-rule="evenodd" d="M21.4248 6.83687C21.4248 5.05417 22.4038 3.72589 24.117 3.20156C24.7114 3.02679 25.7254 2.95688 26.3897 3.02679C29.6064 3.41129 31.0749 6.62714 29.3267 9.42353C29.0469 9.87794 28.8721 10.2624 28.9421 10.2974C33.6273 12.6394 36.8789 15.6804 37.823 18.6866C38.3474 20.3994 38.3824 20.9936 38.0677 22.6015C37.6831 24.4192 36.6342 26.4815 35.1307 28.404L34.3965 29.3128L35.1307 31.8645C35.9349 34.7658 35.795 35.395 34.0468 36.0591C33.5529 36.2237 32.9298 36.4529 32.4986 36.6115C32.3803 36.655 32.2765 36.6932 32.1937 36.7233C30.9 37.2126 35.0957 37.9816 38.5922 37.8768C42.5081 37.8069 43.8368 38.2962 45.3402 40.3586C46.3192 41.7218 46.3192 41.7568 45.7248 42.8054C45.4102 43.3647 44.5011 44.5532 43.6969 45.427L42.2984 47L41.3543 46.4058C40.7949 46.0213 38.6971 45.5319 35.9699 45.1474C31.0749 44.4483 28.8022 43.8541 26.9491 42.7355L25.6904 42.0015L24.3967 42.8753C22.5786 44.0638 20.3758 44.658 15.0613 45.3222C12.0544 45.7067 10.3062 46.0912 9.92156 46.4407C9.32717 46.965 9.22228 46.965 8.55796 46.3359C8.13839 45.9863 7.19435 44.7978 6.46011 43.7142L5.13147 41.7218L6.35522 40.2887C8.24328 38.1215 9.01249 37.8418 13.1732 37.8418C15.306 37.8768 17.5437 37.6671 18.5577 37.3874L20.3059 36.898L18.6626 36.4786C16.8445 36.0242 15.9354 35.2901 15.9354 34.2764C15.9354 33.8919 16.1801 32.5636 16.4948 31.3402L17.0542 29.1031L16.1452 27.9846C14.8515 26.4465 13.6278 23.9298 13.348 22.217C12.6138 17.9875 16.1102 13.4783 22.5087 10.2974C22.5786 10.2624 22.3688 9.84299 22.0192 9.31866C21.6695 8.79434 21.4248 7.71074 21.4248 6.83687ZM27.8232 7.22137C27.8232 6.94173 27.5085 6.38246 27.1239 5.99795C25.8302 4.70462 23.9072 5.43867 23.9072 7.22137C23.9072 8.27002 24.7464 9.14389 25.7953 9.14389C26.5645 9.14389 27.8232 7.95543 27.8232 7.22137ZM34.6762 17.5331C33.6622 15.995 30.2008 13.2686 27.998 12.2549C27.2288 11.9053 26.1799 11.5907 25.6904 11.5907C23.2079 11.5907 17.5088 15.8203 16.1452 18.7215C15.0263 21.0635 15.9704 24.6289 17.9283 25.5377C20.5856 26.7611 31.5993 26.6213 33.8021 25.3629C36.0048 24.0696 36.4244 20.1896 34.6762 17.5331ZM32.2986 30.6411L32.4385 29.4177L32.5434 28.1943H18.9073L19.0122 29.4177L19.1521 30.6411H32.2986ZM32.2986 34.4163C33.2776 34.1716 33.3126 33.4026 32.3336 32.9132C30.7602 32.0393 19.5717 32.284 18.6976 33.1579C17.8934 33.9618 18.6626 34.591 20.6905 34.8707C22.6835 35.1153 30.7602 34.8008 32.2986 34.4163ZM37.2635 40.2188C32.1588 39.7993 30.3756 39.3099 28.033 37.6321C27.089 36.968 26.04 36.4087 25.7603 36.4087C25.4456 36.4087 24.3268 37.0379 23.2779 37.7719C20.8653 39.4847 19.4668 39.8692 14.8865 40.1488C10.446 40.3935 8.94256 40.8829 8.94256 42.1413C8.94256 42.6306 9.11738 43.12 9.32717 43.2249C9.71177 43.4696 15.1312 42.9452 18.9073 42.316C21.5297 41.8616 23.6974 40.9179 24.8862 39.7294L25.7953 38.8206L26.6344 39.7294C28.2777 41.5121 32.3685 42.6306 39.4313 43.2249C41.8788 43.4346 42.1235 43.3996 42.4732 42.7705C42.7529 42.2112 42.7179 41.8966 42.2284 41.3373C41.704 40.6732 41.0397 40.5334 37.2635 40.2188ZM23.5575 18.1622C24.3617 18.0573 24.5015 17.8825 24.6064 16.729C24.7113 15.5755 24.8162 15.4357 25.7253 15.4357C26.6343 15.4357 26.7392 15.5755 26.8441 16.729C26.949 17.9524 27.0539 18.0573 28.1028 18.1622C29.1867 18.267 29.2566 18.3719 29.1518 19.3856C29.0469 20.3643 28.907 20.5041 27.928 20.609C26.8441 20.7139 26.7742 20.8187 26.7742 22.1121C26.7742 23.4054 26.7043 23.4753 25.7253 23.4753C24.7463 23.4753 24.6763 23.4054 24.6763 22.0771C24.6763 20.7488 24.6064 20.6789 23.6274 20.6789C22.6484 20.6789 22.5785 20.5741 22.5785 19.4905C22.5785 18.4418 22.6834 18.267 23.5575 18.1622Z" fill="black"/>
</svg>
