<svg width="51" height="50" viewBox="0 0 51 50" fill="none" xmlns="http://www.w3.org/2000/svg">
<path fill-rule="evenodd" clip-rule="evenodd" d="M21.934 5.17757C21.3814 5.80561 20.8682 6.51215 20.7893 6.74766C20.7103 7.02243 19.8814 6.82617 18.5788 6.15888C17.4735 5.60935 15.6183 5.02056 14.513 4.9028L12.4999 4.66729L12.7762 7.06168C13.092 9.80935 12.5394 12.1645 10.4473 16.6393C6.73681 24.686 5.11841 28.3364 4.52631 30.1813L3.8158 32.2617L4.96052 33.8318C6.22366 35.5981 8.27627 36.7364 9.6973 36.4617C10.3683 36.3439 10.9604 36.5794 11.6315 37.2467C13.1709 38.7776 14.4341 38.3458 16.2104 35.7944C17.0393 34.6168 18.3814 32.9682 19.2103 32.1439C20.7103 30.5738 23.9077 28.4935 24.2629 28.8467C24.7366 29.3178 23.7103 31.4374 21.0656 35.4019C18.184 39.6411 16.5262 43.2131 16.5262 45.0187V46H31.4865H46.4469L46.7232 43.1346C47.0784 39.4449 46.3679 31.7907 45.3416 27.7477C43.8416 21.9776 40.6048 16.4037 36.7759 13.028C34.2496 10.8299 32.276 9.8486 29.7102 9.61308C27.7366 9.41682 27.5787 9.29907 27.1445 8.04299C26.5918 6.31589 24.5392 4 23.6313 4C23.2366 4 22.4866 4.51028 21.934 5.17757ZM16.6051 7.76822L17.8683 8.39626L16.8814 8.94579C15.4209 9.77009 14.9472 9.61308 14.9472 8.31776C14.9472 6.94392 14.9867 6.94392 16.6051 7.76822ZM24.5758 9.51938C25.106 11.2169 25.348 11.9915 25.8732 12.344C26.314 12.6399 26.9542 12.6385 28.1319 12.636C28.245 12.6358 28.3632 12.6355 28.4865 12.6355C30.5786 12.6355 31.5655 12.8318 32.5523 13.4598C34.7233 14.7944 38.3154 19.0336 40.0917 22.2916C42.6574 27.0804 43.4074 30.2598 43.6443 37.2467L43.8811 43.2131L31.9602 43.3308C22.4866 43.4093 20.0788 43.3308 20.0788 42.9383C20.0788 42.1925 21.5393 39.4841 23.5919 36.3832C26.355 32.2617 27.1839 30.1421 27.1839 27.1589C27.1839 26.1776 27.6181 23.9402 28.1313 22.2131C29.1576 18.7981 29.1181 17.9346 27.9339 18.5234C26.9471 19.0729 25.3682 21.8598 24.8155 24.0187C24.4208 25.5888 24.1445 25.9421 22.5656 26.7664C20.1577 28.0224 17.1183 30.8486 15.1446 33.5963C13.4473 35.9121 12.6973 36.1869 12.8946 34.4206C13.0131 33.4 12.9341 33.3607 11.9078 33.5963C8.90784 34.3421 8.43416 34.3028 7.32891 33.2037C6.4605 32.3794 6.26313 31.8692 6.4605 31.1234C6.57892 30.5346 8.35521 26.6486 10.3683 22.4486C12.3815 18.2486 14.2762 14.2449 14.5525 13.5383C14.9472 12.5178 15.4604 12.1252 17.1972 11.4579C20.6709 10.1626 22.4471 9.14206 22.9208 8.12149C23.4734 6.90467 23.8287 7.14019 24.4208 9.0243C24.4752 9.19748 24.5267 9.36238 24.5758 9.51938ZM15.0659 16.5608C13.7633 17.3458 13.0922 18.7982 13.5264 19.8972C13.8422 20.7608 14.829 20.643 16.8027 19.5047C18.4211 18.5234 19.2895 17.1103 18.6974 16.2075C18.3027 15.5402 16.4474 15.6972 15.0659 16.5608ZM8.51316 32.1832C7.44738 32.0262 7.17107 30.6524 8.03948 29.7496C8.82894 28.9645 9.1842 28.9645 9.81577 29.7103C10.6052 30.6524 9.69735 32.3402 8.51316 32.1832Z" fill="black"/>
</svg>
