<svg width="51" height="50" viewBox="0 0 51 50" fill="none" xmlns="http://www.w3.org/2000/svg">
<path d="M22.5522 5.09671C21.3463 6.31722 21.2367 7.25055 22.0772 9.47619C22.8445 11.5223 22.8445 16.5839 22.0406 20.1736C21.7483 21.6454 21.4194 22.9018 21.3463 22.9736C21.1636 23.1531 18.9711 17.5531 18.3865 15.2916C17.9845 13.8198 17.8749 12.4557 18.0576 10.6608C18.2769 8.32747 18.2038 8.07619 17.3268 7.03517C15.0247 4.34286 10.8955 5.74286 10.8955 9.26081C10.8955 10.5172 11.1147 11.0916 12.0282 12.0967C12.6129 12.7788 13.2707 13.8916 13.4899 14.5377C13.8553 15.8659 13.9284 19.707 13.5995 21.7531L13.3437 23.1172L12.3206 21.9326C9.90884 19.2403 9.28763 17.7326 9.36071 15.0762C9.4338 12.2044 8.84913 10.8044 7.27785 10.1582C4.90265 9.22491 2.12549 11.0916 2.12549 13.6403C2.12549 14.6454 2.41782 15.2198 3.55061 16.3326C4.71994 17.4454 5.08535 18.1634 5.41423 19.7787C5.63348 20.8916 6.25468 23.7275 6.76626 26.0967C7.64326 29.9377 7.89905 30.4762 9.25109 32.0198C12.5764 35.6813 12.7956 36.3633 11.6628 38.948C10.6397 41.2813 10.3839 43.2198 11.0051 44.0454C11.7725 45.0864 15.4997 45.6967 22.7715 45.948C29.7144 46.1633 35.963 45.6967 38.192 44.7992C39.4344 44.2967 39.5806 43.9018 39.3979 41.5685C39.3613 40.9941 38.9959 39.9172 38.6305 39.1633C37.3515 36.6864 37.6073 35.9685 41.0788 31.7685C42.6501 29.9018 43.454 27.3172 44.6964 20.4249C45.0983 18.1634 45.3176 17.6967 46.7062 16.3326C48.1313 14.9326 48.2409 14.7172 48.0582 13.3531C47.6928 10.589 44.8791 9.00952 42.7597 10.3736C41.1153 11.4147 40.8595 11.989 40.8961 14.6813C40.9692 17.5172 40.3479 19.0249 38.192 21.5736C36.9861 22.9736 36.913 23.0095 36.6938 22.2557C36.3284 20.8916 36.438 15.7223 36.8765 14.43C37.1323 13.748 37.79 12.5634 38.3382 11.8095C39.7267 9.94286 39.7267 8.36337 38.3747 6.89158C37.4977 5.95825 37.0592 5.74286 35.7437 5.74286C34.3917 5.74286 33.9897 5.92235 33.0762 6.92748C32.053 8.07619 32.0165 8.21978 32.2357 10.5172C32.4915 13.3172 31.6876 16.9429 29.9701 20.7839C28.7277 23.5121 28.7643 23.5121 27.8873 18.63C27.1564 14.4659 27.193 13.3531 28.1065 9.97875C28.7277 7.64542 28.7643 6.99927 28.3989 6.13773C27.4122 3.8044 24.4158 3.26594 22.5522 5.09671ZM26.5352 7.14286C26.6814 8.50696 25.8775 9.26081 24.5985 8.93773C23.8677 8.75824 23.685 8.50696 23.685 7.50184C23.685 6.03004 23.9408 5.77876 25.3294 5.92235C26.2429 6.03004 26.4256 6.20953 26.5352 7.14286ZM15.4266 8.11209C15.8651 8.43517 16.0478 8.93773 15.9382 9.61978C15.8651 10.5172 15.6459 10.7326 14.7323 10.8044C14.038 10.9121 13.5265 10.7326 13.1976 10.3018C12.5764 9.44029 12.5764 9.22491 13.4534 8.36337C14.3304 7.50184 14.5496 7.50184 15.4266 8.11209ZM36.6207 8.11209C37.0592 8.43517 37.2419 8.93773 37.1323 9.61978C37.0227 10.589 36.8765 10.6967 35.7803 10.6967C34.1724 10.6967 33.5512 9.4403 34.6475 8.36337C35.4879 7.53773 35.7437 7.50184 36.6207 8.11209ZM6.80281 12.3839C7.53364 13.1018 7.35093 14.7531 6.51047 15.0044C5.15844 15.4352 4.31798 14.8967 4.31798 13.5685C4.31798 12.9223 4.53723 12.2762 4.79302 12.2044C5.59694 11.8813 6.36431 11.9531 6.80281 12.3839ZM45.5368 12.3839C46.5235 13.3531 45.7926 15.1839 44.4771 15.1839C43.7098 15.1839 42.6866 14.2505 42.6866 13.5685C42.6866 12.3121 44.6233 11.4864 45.5368 12.3839ZM16.7421 17.589C16.7421 18.4505 18.9346 22.6146 20.2866 24.3377L21.6021 26.0608L22.2599 25.1993C23.0273 24.23 24.7812 19.1685 24.7812 17.9121C24.7812 15.9736 25.3294 16.8352 26.0967 19.9582C26.9007 23.2608 28.2162 26.1326 28.8008 25.7736C29.4951 25.3428 31.8338 21.5377 33.0031 18.9531L34.2821 16.0813V18.4146C34.2821 20.8557 35.1225 26.5275 35.5245 26.9223C35.6341 27.03 37.2419 25.6659 39.069 23.8352C40.8961 22.0403 42.2846 20.8557 42.175 21.1787C42.0654 21.5377 41.7 23.0454 41.3711 24.5172C40.823 27.0659 39.9825 29.1839 39.544 29.1839C39.4709 29.1839 38.7036 28.8249 37.8631 28.43C32.3819 25.6659 19.0077 25.63 12.8322 28.3223C11.334 28.9685 10.6762 29.0762 10.3108 28.789C10.055 28.6095 9.50688 26.9223 9.06838 25.1275C8.66643 23.2967 8.22793 21.5736 8.1183 21.2146C8.00868 20.8916 9.4338 22.1121 11.2609 23.9069C13.088 25.6659 14.6592 27.03 14.7689 26.9223C15.1708 26.5275 16.0113 20.8557 16.0113 18.4146C16.0113 16.7634 16.1209 16.2249 16.3767 16.6198C16.5594 16.907 16.7421 17.3736 16.7421 17.589ZM28.4354 28.8249C30.7375 29.0403 33.2954 29.3634 34.0993 29.5787C35.4879 29.9377 36.84 30.7992 36.84 31.3377C36.84 31.4454 31.578 31.5531 25.1467 31.589C18.7154 31.589 13.4534 31.4813 13.4534 31.3018C13.4534 30.8351 15.0247 29.9018 16.5594 29.471C17.3633 29.2557 19.3366 28.9685 20.9444 28.8249C22.5522 28.6813 23.9408 28.5377 24.0504 28.5377C24.16 28.5018 26.1333 28.6454 28.4354 28.8249ZM33.2589 34.1018C35.7072 34.3172 35.7437 34.3172 35.4514 35.2505C35.3052 35.7531 35.1956 36.6864 35.2321 37.2608V38.3736L33.4051 38.1223C32.3819 37.9787 28.6547 37.8351 25.1467 37.8351C21.6387 37.8351 17.9114 37.9787 16.8883 38.1223L15.0612 38.3736V37.2608C15.0977 36.6864 14.9516 35.7531 14.8054 35.2146C14.5496 34.2813 14.5862 34.2454 16.2671 34.1018C19.4096 33.8864 30.7741 33.8505 33.2589 34.1018ZM34.5378 40.671C35.9995 41.1736 36.3284 41.9633 35.3052 42.5018C33.4051 43.5069 19.6289 43.6864 15.9382 42.789C14.5131 42.43 14.038 41.389 14.9881 40.8146C16.3767 39.9531 32.1992 39.8454 34.5378 40.671Z" fill="black"/>
</svg>
