<svg width="51" height="50" viewBox="0 0 51 50" fill="none" xmlns="http://www.w3.org/2000/svg">
<path d="M9.80567 5.09896C8.81716 6.11943 8.73807 6.47266 8.73807 9.37707V12.5562L11.8618 15.2644L15.025 17.9333V25.1943L15.0645 32.4553L11.5059 35.9877L7.94727 39.52V42.2674C7.94727 43.9159 8.14497 45.2503 8.42175 45.5251C8.77762 45.8783 13.1666 45.9961 25.7405 45.9961C45.2339 45.9961 43.9291 46.2708 43.9291 42.2282V39.9125L40.1727 36.1054L36.4164 32.2983V25.2728V18.208L39.5796 15.5391L42.7429 12.8309V9.45556C42.7429 6.31567 42.6638 6.04093 41.6357 5.05972C40.6472 4.11774 40.2518 4 37.5631 4C34.2417 4 32.7391 4.78497 33.1345 6.35492C33.3322 7.02215 33.1741 7.13989 32.1065 7.13989C31.0784 7.13989 30.8807 6.9829 30.8807 6.23717C30.8807 4.47099 29.7736 4 25.6614 4C21.5887 4 20.6002 4.47099 20.6002 6.27642C20.6002 6.94365 20.363 7.13989 19.6117 7.13989C18.8209 7.13989 18.6232 6.94365 18.6232 6.23717C18.6232 4.54948 17.4765 4 14.0365 4C11.071 4 10.7942 4.0785 9.80567 5.09896ZM16.2508 8.04261C16.2508 9.45556 17.002 9.8873 19.4535 9.8873C22.4586 9.8873 22.9726 9.65181 22.9726 8.2781V7.13989H25.7405C28.3501 7.13989 28.5083 7.17914 28.5083 8.04261C28.5083 9.49481 29.2596 9.8873 32.146 9.8873C34.4394 9.8873 34.8743 9.76955 35.2302 9.06308C35.507 8.63134 35.586 8.00336 35.4674 7.68937C35.3093 7.25764 35.7442 7.13989 37.5631 7.13989C40.2123 7.13989 40.3704 7.33614 40.3704 10.2013C40.3704 11.9675 40.2914 12.1245 37.998 13.8907L35.6651 15.7746H25.8591H16.0531L13.6806 13.8907C11.3477 12.0067 11.3082 11.9282 11.3082 10.0443C11.3477 8.98458 11.4664 7.88562 11.6641 7.61088C11.8222 7.33614 12.8107 7.13989 14.1156 7.13989C16.0926 7.13989 16.2508 7.21839 16.2508 8.04261ZM34.044 24.8018V31.0816L25.8986 31.0031L17.7928 30.8853L17.7138 24.684L17.6347 18.522H25.8591H34.044V24.8018ZM36.6932 35.4774C37.8398 36.6156 38.7888 37.6361 38.7888 37.7538C38.7888 37.8716 32.9764 37.9108 25.8591 37.8323L12.9294 37.7146L15.0645 35.5952L17.1997 33.4365H25.8986H34.5975L36.6932 35.4774ZM41.5566 41.875V43.2487H25.9382H10.3197V41.875V40.5013H25.9382H41.5566V41.875Z" fill="black"/>
</svg>
