<svg width="51" height="50" viewBox="0 0 51 50" fill="none" xmlns="http://www.w3.org/2000/svg">
<path d="M21.63 5.53084L20.3705 7.06168L18.245 6.08037C17.0641 5.53084 15.2535 5.05981 14.2695 5.05981L12.4589 4.98131L12.5376 7.72897C12.6163 11.0262 12.144 12.557 8.24725 20.8393C6.6728 24.1757 4.98027 28.0617 4.50794 29.5533C3.642 32.1047 3.60263 32.2224 4.31114 33.3215C5.29516 34.9701 6.75153 35.9907 8.87703 36.5794C10.1366 36.9327 10.8844 36.972 11.3568 36.6972C11.8291 36.3832 12.0653 36.5009 12.3802 37.129C12.6163 37.6 13.1674 37.9925 13.6397 38.071C14.3089 38.1888 14.8993 37.6 16.4737 35.2841C17.5365 33.6748 18.9928 31.9084 19.7013 31.3196C21.1183 30.1028 23.9917 28.572 24.2672 28.8467C24.6608 29.2393 22.7715 32.772 20.5279 35.9121C19.229 37.6785 17.9301 39.6411 17.5758 40.3084C17.1035 41.2505 16.1195 45.0187 16.1195 45.8037C16.1195 45.9215 22.929 46 31.2342 46H46.3095L46.585 44.1944C47.451 37.6393 45.7978 27.0804 43.0031 21.4673C39.5394 14.5981 34.5011 10.1626 29.3448 9.53458C27.4948 9.29906 27.3768 9.22056 26.8651 7.65047C26.314 6.00187 24.4247 4 23.4013 4C23.0864 4 22.2992 4.70654 21.63 5.53084ZM29.8172 13.2243C33.9107 14.4411 39.4213 20.957 41.3893 26.9626C42.5702 30.5346 43.2787 35.0093 43.2787 38.8953C43.2787 41.7215 42.6883 43.0561 41.6255 42.6636C40.7989 42.3495 40.5234 41.2505 40.5234 37.914C40.5234 34.2243 39.5787 28.8467 38.3979 25.9813C36.2724 20.8 31.9427 16.129 27.9278 14.7159C26.0385 14.0486 25.4481 13.3028 26.4715 12.9103C27.2587 12.557 27.6917 12.5963 29.8172 13.2243ZM18.3631 16.443C18.4811 16.7178 17.8514 17.6598 17.0248 18.5234C15.8833 19.7794 15.2142 20.172 14.1514 20.2112C12.144 20.329 12.0653 18.9551 13.9153 17.1103C15.0961 15.9327 15.5291 15.7364 16.7493 15.8542C17.5758 15.9327 18.2843 16.1682 18.3631 16.443ZM8.24725 30.6131C8.24725 31.5944 7.42067 32.5757 6.476 32.7327C5.84622 32.8112 5.72814 32.6542 5.80686 31.8692C5.9643 30.2598 8.24725 29.0822 8.24725 30.6131Z" fill="black"/>
</svg>
