<svg width="51" height="50" viewBox="0 0 51 50" fill="none" xmlns="http://www.w3.org/2000/svg">
<path d="M22.8468 4.67463C21.5673 5.64741 21.3479 7.1246 22.1157 9.53855C22.9565 12.1687 22.9199 15.7716 22.0791 20.0591L21.4576 23.3017L20.6168 21.5002C18.8619 17.6811 17.948 14.3665 18.0211 12.1326C18.0576 10.9437 18.0942 9.53855 18.0942 8.99812C18.1673 6.65623 15.462 4.99889 13.1222 5.97167C11.5868 6.58417 11.0384 7.34078 10.819 8.99812C10.6728 10.1871 10.7825 10.5834 11.7696 11.6643C13.4147 13.5018 13.6341 14.4385 13.6341 19.0863L13.5975 23.3017L12.1717 21.7524C9.90508 19.2664 9.10079 17.3208 9.39326 14.9069C9.57605 13.2135 9.50293 12.6371 8.88143 11.6643C7.63844 9.68267 5.70083 9.28635 3.76323 10.5834C1.49659 12.0966 1.60627 15.087 3.94602 16.8164C4.96966 17.6091 5.15245 18.0054 5.37181 19.8789C5.51804 21.0318 6.10298 23.8061 6.65136 25.9678C7.56532 29.4626 7.93091 30.2193 9.53949 32.2009C10.5266 33.4619 11.6233 35.0111 11.9524 35.6596C12.5373 36.7766 12.5373 36.9207 11.6233 39.3706C10.0513 43.6941 10.3438 44.1985 14.9136 45.3515C18.4232 46.2162 31.5112 46.2162 35.5327 45.3515C39.8466 44.4147 40.395 43.3699 38.6402 39.2626C38.0918 37.9655 37.7993 36.7405 37.909 36.2361C38.0187 35.8038 39.152 34.1825 40.3584 32.6332C42.5154 29.9671 42.625 29.7148 43.6487 25.5715C44.1971 23.1936 44.782 20.4193 44.8917 19.3745C45.111 17.8252 45.3304 17.4289 46.3175 16.8164C48.84 15.1951 48.6938 11.5202 46.0616 10.2952C44.453 9.53855 43.1369 9.82679 41.7111 11.268C40.6509 12.3128 40.6143 12.4209 40.8702 14.6187C41.0896 16.6363 40.9799 17.1407 40.2122 18.6539C39.7004 19.6267 38.7133 21.0679 37.9821 21.8605L36.7025 23.3017L36.5929 21.1399C36.337 15.5554 36.8122 13.2856 38.4208 11.8084C41.1627 9.39444 38.1649 4.67463 34.6553 5.82756C32.4617 6.54814 32.0962 7.30475 32.2058 10.9077C32.279 13.6819 32.1693 14.5466 31.2188 17.3569C30.5973 19.1583 29.793 21.212 29.4274 21.9326L28.7328 23.2296L28.1478 19.987C27.3801 15.9157 27.3435 11.8084 28.0747 9.79076C28.879 7.55695 28.7693 6.07976 27.7091 4.96286C26.6489 3.80993 24.1995 3.66581 22.8468 4.67463ZM26.3565 6.25991C26.978 6.8724 26.9048 8.16945 26.2468 8.70988C24.8576 9.82679 22.7372 7.7371 23.8705 6.36799C24.4188 5.71947 25.735 5.64741 26.3565 6.25991ZM15.9007 8.49371C16.7415 9.75473 15.9007 10.9437 14.3287 10.7996C13.2685 10.6915 13.0857 10.5474 12.976 9.61061C12.8663 8.92606 13.0491 8.42165 13.4878 8.09739C14.1824 7.59298 15.462 7.80916 15.9007 8.49371ZM36.8122 8.09739C37.2509 8.42165 37.4337 8.92606 37.324 9.61061C37.2509 10.4753 37.0316 10.7275 36.1907 10.7996C34.2166 11.0157 33.3757 9.25032 34.9112 8.20548C35.8983 7.52092 36.0079 7.52092 36.8122 8.09739ZM6.98039 12.3849C7.60188 12.9973 7.52877 14.2944 6.87071 14.8348C6.13954 15.4473 4.60408 15.015 4.31161 14.1142C3.79979 12.529 5.81051 11.2319 6.98039 12.3849ZM45.5863 12.529C46.2809 13.1775 46.3175 13.5378 45.8056 14.5106C45.0745 15.8436 42.881 15.1591 42.881 13.5738C42.881 12.0606 44.4895 11.4481 45.5863 12.529ZM35.3864 30.0031C36.4101 30.3634 36.8853 30.7597 36.9585 31.2641L37.0681 32.0567L25.1866 32.0207C13.8534 31.9847 13.2685 31.9487 13.2685 31.3362C13.2685 29.8229 17.2534 29.2465 26.6124 29.3906C31.5478 29.4987 34.3994 29.6788 35.3864 30.0031ZM33.8875 37.8574C34.6553 38.0376 35.5692 38.4699 35.8983 38.7582C36.3735 39.2626 36.3735 39.4067 35.9348 39.839C35.4596 40.2714 34.4725 40.3074 30.0854 40.0912C27.1607 39.9111 22.5909 39.9111 19.8856 40.0912C15.0964 40.4155 13.9996 40.2353 13.9996 39.2986C13.9996 38.7221 16.0835 37.9295 18.4232 37.5692C21.2017 37.1368 31.8403 37.353 33.8875 37.8574Z" fill="white"/>
</svg>
