<svg width="51" height="50" viewBox="0 0 51 50" fill="none" xmlns="http://www.w3.org/2000/svg">
<path d="M11.4124 20.1772C9.91969 20.6287 8.68823 22.1713 8.68823 23.6387C8.68823 25.3695 10.1063 28.0032 12.2333 30.1479C13.9126 31.841 14.3231 32.0667 16.1516 32.2925C18.4279 32.5559 20.9281 32.1044 21.4506 31.3519C22.2342 30.1855 21.0028 25.6328 19.3235 23.3753C17.2711 20.7416 14.0618 19.4247 11.4124 20.1772Z" fill="white"/>
<path d="M28.802 28.7182C29.511 24.3913 32.2724 20.9298 35.6682 20.1396C36.3026 19.9891 37.0863 19.9139 37.3475 19.9891C37.646 20.0644 38.2058 20.1396 38.6163 20.1396C39.0267 20.1396 39.8477 20.6288 40.4448 21.2308C41.2657 22.0585 41.527 22.6981 41.527 23.7893C41.527 25.7082 39.6611 28.8311 37.3475 30.7876C35.6309 32.2173 35.519 32.2549 32.7575 32.2549C28.9139 32.2549 28.3168 31.7658 28.802 28.7182Z" fill="white"/>
<path fill-rule="evenodd" clip-rule="evenodd" d="M23.615 3.73502C23.2418 4.93902 23.0552 5.08953 21.8984 5.08953C20.7043 5.08953 20.6297 5.16477 20.6297 6.36878C20.6297 7.49754 20.8162 7.79854 22.1223 8.51342C22.9433 9.00255 23.615 9.64218 23.615 9.94317C23.615 10.2442 22.8313 11.3353 21.8611 12.3136C20.2938 13.8938 20.1072 14.3077 19.958 16.189C19.8833 17.3177 19.7341 18.2583 19.6221 18.2583C19.5475 18.2583 18.9877 17.9197 18.428 17.4682C16.0024 15.6622 11.599 15.3988 8.6883 16.9415C7.19563 17.7316 5.44174 19.9139 4.99394 21.5317C4.13565 24.617 4.65809 26.423 7.83001 31.3143C10.181 34.8887 10.8154 36.6195 11.1512 40.5701C11.5244 44.7089 12.308 45.6495 16.3009 46.703C20.8909 47.9447 31.6008 47.6813 35.5937 46.2891C38.2805 45.3109 38.8029 44.5584 39.1014 41.2474C39.5119 37.0333 40.3702 34.6253 42.9451 30.7123C45.408 26.9874 45.8185 25.6705 45.5572 22.7358C44.9975 17.0543 38.5044 14.1572 32.9442 17.0543L30.7798 18.1831L30.5186 16.1137C30.2947 14.3077 30.0708 13.8562 28.6154 12.4641C26.6003 10.5076 26.5257 9.56693 28.2796 8.47579C29.3618 7.79854 29.5857 7.42229 29.5857 6.36878C29.5857 5.16477 29.511 5.08953 28.3169 5.08953C27.2347 5.08953 27.0481 4.93902 26.7496 3.84789C26.4511 2.86964 26.1899 2.60626 25.2196 2.53101C24.1747 2.41813 24.0255 2.56864 23.615 3.73502ZM16.3382 19.0109C19.9953 20.7792 22.5701 24.2784 23.0552 28.0409C23.4657 31.0509 23.5777 31.3519 24.5479 31.5777C26.0779 31.9539 26.9735 31.2391 26.9735 29.5835C26.9735 24.2031 32.3844 18.2583 37.2356 18.2583C40.818 18.2583 43.0197 20.2525 43.0197 23.4883C43.0197 26.2349 39.9971 31.3519 37.2356 33.2708C36.1534 33.9857 35.4817 34.1362 33.28 34.1362C31.8247 34.0986 29.3991 33.9104 27.8691 33.6847C25.9286 33.3837 24.324 33.3837 22.3835 33.6471C19.5848 34.0609 17.2338 34.2114 15.0321 34.0986C13.95 34.0609 13.3529 33.6471 11.4871 31.6906C7.60611 27.5894 6.26271 23.413 7.90465 20.6664C9.32268 18.3336 13.3156 17.5435 16.3382 19.0109ZM33.6532 40.2315C34.3622 40.4572 34.9966 40.8335 35.0712 41.0969C35.4071 42.0751 33.8771 42.2632 29.4737 41.887C26.4884 41.6236 23.7269 41.6236 20.7416 41.887C16.4875 42.2632 15.0321 42.0751 15.0321 41.1721C15.0321 40.4949 17.0472 40.0057 20.8162 39.7424C25.2943 39.4037 31.8993 39.6671 33.6532 40.2315Z" fill="white"/>
</svg>
