<svg width="50" height="50" viewBox="0 0 50 50" fill="none" xmlns="http://www.w3.org/2000/svg">
<path d="M21.6616 4.79246C18.8931 6.16736 17.9567 8.76001 19.056 11.7848C19.4224 12.7276 19.6667 13.5525 19.626 13.5918C19.5445 13.6311 18.8117 14.0239 17.9975 14.5346C15.2697 16.1059 14.0483 20.2698 15.3919 23.3339C15.6768 24.041 16.5318 25.1016 17.2646 25.7301C18.3232 26.5944 18.486 26.8693 18.0382 27.1443C16.0025 28.2442 13.0712 30.7583 12.0127 32.2511C10.0992 35.0008 9.44784 37.1614 9.24427 41.7575L9 46H25H41L40.7557 41.7575C40.5929 38.8898 40.2672 36.8471 39.6565 35.3151C38.6387 32.6832 35.8702 29.5406 33.3053 28.0871C32.3282 27.5371 31.514 26.9872 31.514 26.8693C31.514 26.7515 32.0025 26.3194 32.5725 25.848C33.8346 24.9052 35.1374 22.3125 35.1781 20.7019C35.1781 18.62 34.2417 16.538 32.7354 15.2024C31.8804 14.4953 30.9847 13.8275 30.6997 13.7096C30.2519 13.5918 30.2519 13.2775 30.6183 12.2169C30.9033 11.5098 31.1069 10.1742 31.1069 9.2314C31.1069 5.14601 25.855 2.63191 21.6616 4.79246Z" fill="white"/>
</svg>
