<svg width="51" height="50" viewBox="0 0 51 50" fill="none" xmlns="http://www.w3.org/2000/svg">
<path d="M22.9364 3.66555C21.2672 4.71643 20.8499 7.13345 21.9627 9.27023L22.4843 10.2861L20.8847 11.0567C20.0153 11.4771 18.1722 12.9483 16.7464 14.3495C14.5903 16.4862 14.1383 17.1168 13.6166 18.8682C12.7472 21.8807 13.408 24.5079 15.9813 28.151C17.0246 29.6222 17.0594 29.6922 16.6073 31.3036C15.5293 35.1218 15.8422 36.1026 18.3808 36.4879C19.1111 36.628 19.7023 36.8382 19.7023 36.9433C19.7023 37.5037 16.2943 38.0292 12.8863 38.0292C8.64377 38.0292 7.77439 38.3444 6.2095 40.5163L5.13147 41.9875L6.4877 44.0192C7.25276 45.1401 8.22647 46.2961 8.60899 46.5763C9.26972 47.0317 9.4436 47.0317 10.1739 46.5413C10.6607 46.226 13.0254 45.7356 15.6336 45.3853C21.2324 44.6147 22.693 44.2293 24.3622 43.1084L25.6836 42.1977L26.7964 42.9333C28.7786 44.1593 30.8651 44.7198 35.8032 45.3853C39.1069 45.8057 40.8109 46.191 41.2629 46.6113C41.7498 47.0667 42.0628 47.1017 42.6192 46.8215C43.2799 46.4362 46.1315 42.583 46.1315 42.0225C46.1315 41.4971 44.2536 39.3253 43.2104 38.6947C42.341 38.1693 41.4716 38.0292 38.5852 38.0292C35.0729 38.0292 31.5259 37.4687 31.5259 36.9082C31.5259 36.7681 31.9084 36.628 32.3953 36.628C33.6124 36.628 35.2468 35.7173 35.4902 34.9466C35.5946 34.6314 35.3859 33.2652 35.0034 31.9341L34.3427 29.5521L35.6989 27.5555C39.0721 22.5463 38.8634 18.553 34.9686 14.5947C33.5081 13.1234 30.6217 11.0567 29.3698 10.6013C28.8482 10.4262 28.883 10.2861 29.5089 8.98999C30.4131 7.16847 30.1349 5.38199 28.7439 3.98082C27.9092 3.14012 27.4919 3 25.8923 3C24.6752 3 23.6667 3.2452 22.9364 3.66555ZM26.7964 6.01251C27.4572 6.64304 27.4919 6.99333 27.0051 7.93912C26.3096 9.2352 24.2231 8.56964 24.2231 7.02836C24.2231 5.55713 25.7532 4.96164 26.7964 6.01251ZM26.7269 16.7314C26.6226 18.0275 26.6226 18.0625 27.8397 18.0625C29.0221 18.0625 29.0916 18.1326 29.0916 19.2535C29.0916 20.3745 28.9873 20.4796 27.9788 20.5847C26.9008 20.6897 26.8312 20.7948 26.8312 22.0208C26.8312 23.2469 26.7617 23.3169 25.7184 23.3169C24.6056 23.3169 24.5708 23.2469 24.5708 21.9158C24.5708 20.6197 24.5013 20.5146 23.5623 20.5146C22.7277 20.5146 22.5539 20.3394 22.4148 19.4637C22.2409 18.2027 22.3104 18.0625 23.5971 18.0625C24.5013 18.0625 24.5708 17.9575 24.5708 16.6264C24.5708 15.2602 24.6056 15.2252 25.7184 15.3303C26.7964 15.4354 26.8312 15.5054 26.7269 16.7314ZM31.7693 27.3803C31.8736 27.6956 31.7693 28.0809 31.4911 28.256C30.9347 28.6414 19.8762 28.5363 19.5284 28.151C19.3893 28.0108 19.3545 27.6605 19.4589 27.3453C19.8066 26.5396 31.4563 26.5396 31.7693 27.3803ZM31.3172 30.8832C32.0475 31.1635 32.0127 31.9341 31.2824 32.2494C30.9347 32.3895 28.6743 32.5646 26.2748 32.6697C20.8151 32.9149 17.9983 32.1793 19.9805 31.0584C20.6064 30.6731 30.4131 30.5329 31.3172 30.8832Z" fill="white"/>
</svg>
