<svg width="51" height="50" viewBox="0 0 51 50" fill="none" xmlns="http://www.w3.org/2000/svg">
<path d="M10.6134 5.10929C9.66492 6.09974 9.54636 6.49592 9.54636 9.18992V12.1613L12.5102 15.093L15.4741 18.0247V24.9974V31.9305L11.7199 35.6942L7.96564 39.4579V42.0727C7.96564 46.2721 6.66154 45.9948 26.0254 45.9948C45.2707 45.9948 43.9271 46.3117 43.9271 41.9934V39.4579L40.3705 35.8923L36.8138 32.3267V25.1955V18.0247L39.5801 15.2911L42.3464 12.5574V9.15031C42.3464 6.09974 42.2673 5.62433 41.4375 4.87159C40.6866 4.15847 40.0543 4 37.7623 4C34.7984 4 34.0476 4.35656 34.0476 5.86203C34.0476 6.65439 33.85 6.77324 32.6644 6.77324C31.4789 6.77324 31.2813 6.65439 31.2813 5.86203C31.2813 4.23771 30.6095 4 26.144 4C21.6784 4 21.0066 4.23771 21.0066 5.86203C21.0066 6.65439 20.809 6.77324 19.6235 6.77324C18.5565 6.77324 18.2403 6.61477 18.2403 6.06012C18.2403 4.63388 16.9758 4 14.249 4C11.957 4 11.5618 4.11885 10.6134 5.10929ZM34.0476 18.8567V20.2433L26.0649 20.164L18.0428 20.0452L17.9242 18.7378L17.8056 17.47H25.9069H34.0476V18.8567ZM34.0476 31.7324V32.921H25.9464H17.8452V31.7324V30.5439H25.9464H34.0476V31.7324Z" fill="white"/>
</svg>
